<svg viewBox="0 0 300 45.87" xmlns="http://www.w3.org/2000/svg"><g fill="#e65133" transform="translate(0 -1.39)"><path d="m0 11.23h5.39v3.49h.1a7 7 0 0 1 3.35-3.22 11.05 11.05 0 0 1 4.64-1 12.36 12.36 0 0 1 5.31 1.07 10.49 10.49 0 0 1 3.77 3 12.8 12.8 0 0 1 2.25 4.36 18.55 18.55 0 0 1 .75 5.35 18.85 18.85 0 0 1 -.68 5 13.26 13.26 0 0 1 -2 4.32 10.34 10.34 0 0 1 -3.47 3 10.32 10.32 0 0 1 -4.94 1.12 14 14 0 0 1 -2.5-.22 11.07 11.07 0 0 1 -2.4-.72 9.73 9.73 0 0 1 -2.12-1.28 6.86 6.86 0 0 1 -1.62-1.82h-.1v12.89h-5.73zm19.87 12.93a12.85 12.85 0 0 0 -.45-3.4 9.21 9.21 0 0 0 -1.35-2.92 6.87 6.87 0 0 0 -2.25-2 6 6 0 0 0 -3.09-.84 6.27 6.27 0 0 0 -5.42 2.5 11 11 0 0 0 -1.82 6.64 13 13 0 0 0 .51 3.63 8.09 8.09 0 0 0 1.42 2.88 7.11 7.11 0 0 0 2.27 1.89 6.41 6.41 0 0 0 3.07.7 6.27 6.27 0 0 0 3.29-.8 6.88 6.88 0 0 0 2.22-2.07 8.27 8.27 0 0 0 1.25-2.89 14.76 14.76 0 0 0 .35-3.32z"/><path d="m34.64 28.75a4.28 4.28 0 0 0 1.9 3.49 7.42 7.42 0 0 0 3.94 1 15.8 15.8 0 0 0 1.82-.12 7.91 7.91 0 0 0 1.93-.48 3.54 3.54 0 0 0 1.47-1 2.44 2.44 0 0 0 .52-1.77 2.5 2.5 0 0 0 -.8-1.8 5.35 5.35 0 0 0 -1.92-1.12 17.61 17.61 0 0 0 -2.67-.73c-1-.2-2-.41-3-.65a28.11 28.11 0 0 1 -3.07-.84 10.33 10.33 0 0 1 -2.65-1.35 6.34 6.34 0 0 1 -1.87-2.17 6.93 6.93 0 0 1 -.7-3.27 5.88 5.88 0 0 1 1-3.52 7.89 7.89 0 0 1 2.6-2.3 11.29 11.29 0 0 1 3.49-1.22 20.85 20.85 0 0 1 3.67-.35 16.94 16.94 0 0 1 3.8.45 10.44 10.44 0 0 1 3.3 1.38 8 8 0 0 1 2.44 2.47 8.58 8.58 0 0 1 1.23 3.67h-5.94a3.57 3.57 0 0 0 -1.88-2.75 7.69 7.69 0 0 0 -3.37-.7 11.33 11.33 0 0 0 -1.42.1 6.51 6.51 0 0 0 -1.55.38 3.18 3.18 0 0 0 -1.22.79 1.93 1.93 0 0 0 -.5 1.38 2.13 2.13 0 0 0 .73 1.69 5.69 5.69 0 0 0 1.89 1.08 18.92 18.92 0 0 0 2.67.72l3.1.65c1 .23 2 .52 3 .85a9.57 9.57 0 0 1 2.71 1.29 6.15 6.15 0 0 1 2.62 5.34 7 7 0 0 1 -1 3.89 8.35 8.35 0 0 1 -2.72 2.6 12.63 12.63 0 0 1 -3.72 1.44 18.89 18.89 0 0 1 -4 .45 17.36 17.36 0 0 1 -4.51-.55 10.39 10.39 0 0 1 -3.6-1.67 8.13 8.13 0 0 1 -2.39-2.79 8.77 8.77 0 0 1 -.93-4z"/><path d="m53.11 11.23h6.24l6.74 19.27h.1l6.54-19.27h5.94l-10 27.2c-.47 1.17-.93 2.28-1.38 3.35a12.5 12.5 0 0 1 -1.64 2.82 7.13 7.13 0 0 1 -2.43 1.94 8.11 8.11 0 0 1 -3.69.73 25.84 25.84 0 0 1 -3.94-.3v-4.79c.46.06.91.14 1.35.22a7.34 7.34 0 0 0 1.34.13 4.77 4.77 0 0 0 1.65-.25 2.72 2.72 0 0 0 1.07-.73 4.25 4.25 0 0 0 .73-1.12 11.12 11.12 0 0 0 .55-1.5l.65-2z"/><path d="m98.59 19.86a5.4 5.4 0 0 0 -1.93-3.62 6.27 6.27 0 0 0 -4-1.22 8.16 8.16 0 0 0 -2.35.38 5.61 5.61 0 0 0 -2.3 1.39 7.78 7.78 0 0 0 -1.74 2.85 13.42 13.42 0 0 0 -.7 4.77 13.89 13.89 0 0 0 .43 3.19 8.78 8.78 0 0 0 1.2 2.85 6.6 6.6 0 0 0 2.12 2 6.13 6.13 0 0 0 3.15.77 5.68 5.68 0 0 0 4.11-1.55 7.17 7.17 0 0 0 2-4.34h5.69a12.55 12.55 0 0 1 -3.82 7.71 11.67 11.67 0 0 1 -8 2.67 13.26 13.26 0 0 1 -5.37-1 11.27 11.27 0 0 1 -3.92-2.8 11.91 11.91 0 0 1 -2.42-4.21 16.47 16.47 0 0 1 -.82-5.29 17.92 17.92 0 0 1 .8-5.45 12.54 12.54 0 0 1 2.39-4.41 11.31 11.31 0 0 1 4-3 13.5 13.5 0 0 1 5.57-1.07 15.6 15.6 0 0 1 4.26.57 11.54 11.54 0 0 1 3.6 1.72 9.32 9.32 0 0 1 2.57 2.9 10.14 10.14 0 0 1 1.2 4.14z"/><path d="m109.07 1.39h5.69v13.23h.1a8.33 8.33 0 0 1 3.14-2.92 9.22 9.22 0 0 1 4.62-1.17 9.65 9.65 0 0 1 6.69 2.2c1.63 1.46 2.44 3.66 2.44 6.58v17.69h-5.75v-16.19a7 7 0 0 0 -1.3-4.42 4.72 4.72 0 0 0 -3.7-1.39 6.19 6.19 0 0 0 -2.6.53 5.56 5.56 0 0 0 -1.94 1.47 6.74 6.74 0 0 0 -1.25 2.17 7.81 7.81 0 0 0 -.45 2.65v15.18h-5.69z"/><path d="m149.55 37.73a14.06 14.06 0 0 1 -5.51-1 11.73 11.73 0 0 1 -4.1-2.82 12.13 12.13 0 0 1 -2.54-4.29 16.38 16.38 0 0 1 -.88-5.49 16.12 16.12 0 0 1 .88-5.44 12.08 12.08 0 0 1 2.54-4.3 11.73 11.73 0 0 1 4.1-2.82 15.42 15.42 0 0 1 11 0 11.78 11.78 0 0 1 4.09 2.82 12.25 12.25 0 0 1 2.55 4.3 16.38 16.38 0 0 1 .87 5.44 16.63 16.63 0 0 1 -.87 5.49 12.3 12.3 0 0 1 -2.55 4.29 11.78 11.78 0 0 1 -4.09 2.82 14.15 14.15 0 0 1 -5.49 1zm0-4.49a6.48 6.48 0 0 0 3.3-.8 7 7 0 0 0 2.29-2.09 9.12 9.12 0 0 0 1.32-2.92 13 13 0 0 0 0-6.62 8.74 8.74 0 0 0 -1.32-2.92 7 7 0 0 0 -2.29-2.07 7.19 7.19 0 0 0 -6.59 0 7 7 0 0 0 -2.3 2.07 8.74 8.74 0 0 0 -1.32 2.92 13 13 0 0 0 0 6.62 9.12 9.12 0 0 0 1.36 2.92 6.9 6.9 0 0 0 2.3 2.09 6.44 6.44 0 0 0 3.25.8z"/><path d="m167.57 1.39h5.69v35.61h-5.69z"/><path d="m191.28 37.73a14.06 14.06 0 0 1 -5.51-1 11.73 11.73 0 0 1 -4.1-2.82 12.13 12.13 0 0 1 -2.54-4.29 16.38 16.38 0 0 1 -.88-5.49 16.12 16.12 0 0 1 .88-5.44 12.08 12.08 0 0 1 2.54-4.3 11.73 11.73 0 0 1 4.1-2.82 15.42 15.42 0 0 1 11 0 11.78 11.78 0 0 1 4.09 2.82 12.25 12.25 0 0 1 2.55 4.3 16.38 16.38 0 0 1 .87 5.44 16.63 16.63 0 0 1 -.87 5.49 12.3 12.3 0 0 1 -2.55 4.29 11.78 11.78 0 0 1 -4.09 2.82 14.15 14.15 0 0 1 -5.49 1zm0-4.49a6.48 6.48 0 0 0 3.3-.8 7 7 0 0 0 2.29-2.09 9.12 9.12 0 0 0 1.32-2.92 13 13 0 0 0 0-6.62 8.74 8.74 0 0 0 -1.32-2.92 7 7 0 0 0 -2.29-2.07 7.19 7.19 0 0 0 -6.59 0 7 7 0 0 0 -2.3 2.07 8.74 8.74 0 0 0 -1.32 2.92 13 13 0 0 0 0 6.62 9.12 9.12 0 0 0 1.32 2.92 6.9 6.9 0 0 0 2.3 2.09 6.44 6.44 0 0 0 3.29.8z"/><path d="m232.91 35.69q0 5.84-3.27 8.71t-9.41 2.87a20.29 20.29 0 0 1 -3.92-.4 11.81 11.81 0 0 1 -3.59-1.35 8.55 8.55 0 0 1 -2.72-2.52 7.55 7.55 0 0 1 -1.3-3.79h5.69a4.6 4.6 0 0 0 .85 2 4.41 4.41 0 0 0 1.42 1.17 5.42 5.42 0 0 0 1.83.55 17.42 17.42 0 0 0 2.09.12q3.45 0 5-1.69a6.84 6.84 0 0 0 1.6-4.89v-3.98h-.1a8.77 8.77 0 0 1 -7.7 4.51 11.72 11.72 0 0 1 -5.26-1 10 10 0 0 1 -3.6-2.94 12.37 12.37 0 0 1 -2.07-4.32 20.5 20.5 0 0 1 -.65-5.24 15.27 15.27 0 0 1 .8-4.94 12.47 12.47 0 0 1 2.3-4.12 10.94 10.94 0 0 1 8.58-3.87 10 10 0 0 1 4.5 1 7 7 0 0 1 3.14 3.22h.1v-3.56h5.69zm-12.63-3.15a6.32 6.32 0 0 0 3.22-.77 6.39 6.39 0 0 0 2.15-2.05 9 9 0 0 0 1.2-2.89 14.45 14.45 0 0 0 .37-3.27 12.58 12.58 0 0 0 -.4-3.2 8.43 8.43 0 0 0 -1.22-2.74 6 6 0 0 0 -2.15-1.9 6.65 6.65 0 0 0 -3.17-.7 6 6 0 0 0 -3.19.8 6.3 6.3 0 0 0 -2.1 2.07 9.22 9.22 0 0 0 -1.15 2.9 15.41 15.41 0 0 0 -.35 3.22 12.59 12.59 0 0 0 .4 3.12 8.76 8.76 0 0 0 1.23 2.72 6.47 6.47 0 0 0 2.09 1.94 5.94 5.94 0 0 0 3.07.75z"/><path d="m238.8 1.39h5.69v5.39h-5.69zm0 9.84h5.69v25.77h-5.69z"/><path d="m255.12 25.6a10 10 0 0 0 .43 2.9 7.09 7.09 0 0 0 1.27 2.44 6.2 6.2 0 0 0 2.18 1.68 7.16 7.16 0 0 0 3.09.62 6.86 6.86 0 0 0 4-1.07 6.34 6.34 0 0 0 2.26-3.17h5.39a10.75 10.75 0 0 1 -1.54 3.74 10.93 10.93 0 0 1 -2.65 2.77 11.33 11.33 0 0 1 -3.47 1.7 14.05 14.05 0 0 1 -4 .57 13.78 13.78 0 0 1 -5.39-1 11.22 11.22 0 0 1 -4-2.8 11.92 11.92 0 0 1 -2.44-4.29 17.46 17.46 0 0 1 -.83-5.49 15.38 15.38 0 0 1 .88-5.22 13.2 13.2 0 0 1 2.49-4.34 11.72 11.72 0 0 1 9.11-4.07 11.58 11.58 0 0 1 5.47 1.27 12.08 12.08 0 0 1 4 3.37 13.66 13.66 0 0 1 2.35 4.79 14.64 14.64 0 0 1 .37 5.61zm13.28-3.74a9.24 9.24 0 0 0 -.57-2.6 7 7 0 0 0 -1.3-2.17 6.38 6.38 0 0 0 -2-1.49 5.76 5.76 0 0 0 -2.62-.58 6.87 6.87 0 0 0 -2.72.53 6.15 6.15 0 0 0 -2.09 1.45 7.1 7.1 0 0 0 -1.4 2.17 7.8 7.8 0 0 0 -.58 2.7z"/><path d="m282.73 28.75a4.26 4.26 0 0 0 1.9 3.49 7.4 7.4 0 0 0 3.94 1 15.8 15.8 0 0 0 1.82-.12 8 8 0 0 0 1.92-.48 3.64 3.64 0 0 0 1.48-1 2.77 2.77 0 0 0 -.28-3.57 5.44 5.44 0 0 0 -1.92-1.12 17.61 17.61 0 0 0 -2.67-.73c-1-.2-2-.41-3.05-.65a28.74 28.74 0 0 1 -3.07-.84 10.26 10.26 0 0 1 -2.64-1.35 6.23 6.23 0 0 1 -1.87-2.17 6.93 6.93 0 0 1 -.7-3.27 5.88 5.88 0 0 1 1-3.52 7.79 7.79 0 0 1 2.6-2.3 11.19 11.19 0 0 1 3.49-1.22 20.76 20.76 0 0 1 3.67-.35 17 17 0 0 1 3.82.42 10.38 10.38 0 0 1 3.29 1.38 8 8 0 0 1 2.45 2.47 8.57 8.57 0 0 1 1.22 3.67h-5.94a3.56 3.56 0 0 0 -1.87-2.75 7.72 7.72 0 0 0 -3.32-.74 11.33 11.33 0 0 0 -1.42.1 6.4 6.4 0 0 0 -1.55.38 3.18 3.18 0 0 0 -1.22.79 1.89 1.89 0 0 0 -.5 1.38 2.16 2.16 0 0 0 .72 1.69 5.74 5.74 0 0 0 1.9 1.08 18.92 18.92 0 0 0 2.67.72c1 .2 2 .42 3.09.65a31.23 31.23 0 0 1 3 .85 9.57 9.57 0 0 1 2.69 1.36 6.64 6.64 0 0 1 1.9 2.14 6.53 6.53 0 0 1 .72 3.2 6.91 6.91 0 0 1 -1 3.9 8.25 8.25 0 0 1 -2.72 2.6 12.42 12.42 0 0 1 -3.72 1.44 18.73 18.73 0 0 1 -4 .45 17.44 17.44 0 0 1 -4.52-.55 10.34 10.34 0 0 1 -3.59-1.67 8.05 8.05 0 0 1 -2.4-2.79 8.91 8.91 0 0 1 -.92-4z"/></g></svg>